<?xml version="1.0" encoding="UTF-8"?>
<svg version="1.1" xmlns="http://www.w3.org/2000/svg" width="32" height="32">
<path d="M0 0 C0.62247839 10.68587896 0.62247839 10.68587896 -1.6875 15.5625 C-4.55986638 18.59012943 -6.71750163 20.80209552 -11.02734375 21.17578125 C-13.01906191 21.18658623 -15.0106569 21.09783655 -17 21 C-17.66 21 -18.32 21 -19 21 C-19.66 21.99 -20.32 22.98 -21 24 C-24.93965988 24.70038398 -26.54010344 24.30993029 -29.875 22.0625 C-32.72418203 17.9563259 -32.47493725 14.84435994 -32 10 C-30.37276701 10.45034123 -28.74826336 10.91055354 -27.125 11.375 C-26.22007813 11.63023438 -25.31515625 11.88546875 -24.3828125 12.1484375 C-22 13 -22 13 -20 15 C-19.4121875 13.63875 -19.4121875 13.63875 -18.8125 12.25 C-15.57726647 6.44889161 -6.98937559 0 0 0 Z " fill="#BBD980" transform="translate(32,4)"/>
<path d="M0 0 C0.33 0 0.66 0 1 0 C1.35666988 5.01319327 1.56305357 8.85303903 -0.6875 13.4375 C-3.54898358 16.60833316 -5.69147244 18.80654797 -10.09765625 19.17578125 C-12.06594893 19.1861955 -14.03421936 19.09995495 -16 19 C-16.33 18.34 -16.66 17.68 -17 17 C-16.40832031 16.90203125 -15.81664062 16.8040625 -15.20703125 16.703125 C-9.39017551 15.60238231 -5.26641817 14.28630634 -1.75 9.1875 C-0.71559562 6.17048721 -0.36458871 3.15976879 0 0 Z " fill="#ACC970" transform="translate(31,6)"/>
<path d="M0 0 C0.495 0.78375 0.99 1.5675 1.5 2.375 C4.85744237 5.90031449 7.27291749 6.13336821 12 7 C11.67 7.66 11.34 8.32 11 9 C6.90114782 9.47661072 5.44069635 9.3448928 2.125 6.75 C0 4 0 4 0 0 Z " fill="#ABC86F" transform="translate(0,19)"/>
</svg>
